<?xml version="1.0" standalone="yes"?>
<svg xmlns="http://www.w3.org/2000/svg" width="512" height="512">
<path style="fill:#f4f9ff; stroke:none;" d="M0 0L0 234L1 234C1.06015 143.174 72.7504 57.4208 152 21.6944C176.983 10.4317 206.34 1.01822 234 1L212 0L165 0L0 0z"/>
<path style="fill:#01c7fe; stroke:none;" d="M246 512L246 511C226.718 510.998 208.952 483.952 196 471L128 403C120.127 395.127 104.488 384.535 100.603 374C96.9067 363.974 100 347.68 100 337L120 337L120 136L314 136L368 136C374.573 136 385.017 134.036 391 137.028C402.816 142.936 413.677 158.677 423 168L481 226C490.918 235.918 500.528 247.919 512 256C512 202.579 496.402 152.069 465.975 108C440.705 71.4025 403.855 40.3502 363 22.5756C325.216 6.13727 287.97 0 247 0C214.19 0 180.84 8.24249 151 21.6944C99.1942 45.0489 56.3658 84.9771 29.3086 135C-21.0604 228.122 -6.58844 353.001 67.0394 430C91.3198 455.392 118.937 475.851 151 490.306C180.447 503.581 213.594 512 246 512z"/>
<path style="fill:#f4f9ff; stroke:none;" d="M278 0L278 1C368.826 1.05988 454.579 72.7506 490.306 152C501.568 176.983 510.982 206.34 511 234L512 234L512 0L278 0M120 136L120 337L101 337L101 376L411 376L411 338L256 337L256 319L138 319L138 154L256 154L256 136L120 136z"/>
<path style="fill:#9bbbdb; stroke:none;" d="M256 136L256 154L374 154L374 319L256 319L256 337L411 338L411 376L412 376L412 337L392 337L392 136L256 136z"/>
<path style="fill:#0a82b1; stroke:none;" d="M392 137L392 337L412 337L412 376L101 376C110.113 388.938 123.812 399.812 135 411L200 476L225 501C228.42 504.42 232.1 509.446 237 510.682C260.934 516.721 292.547 510.735 316 504.873C396.871 484.661 463.17 427.586 494.2 350C502.58 329.046 507.383 307.313 510.282 285C511.328 276.945 513.685 265.988 511.682 258C510.454 253.102 505.416 249.416 502 246L480 224L423 167C413.082 157.082 403.472 145.081 392 137z"/>
<path style="fill:#9bbbdb; stroke:none;" d="M138 154L139 155L138 154z"/>
<path style="fill:#6383a3; stroke:none;" d="M138 319L256 319L256 287L255 287L254 295L236 292L256.245 188L256 155L374 155L356 154L320 154L194 154L153 154L139.028 155.603L138 167L138 198L138 319z"/>
<path style="fill:#0a82b1; stroke:none;" d="M256 155L256 185L257 185L258 178L276 181L256.439 283L256 319L374 319L374 155L256 155z"/>
<path style="fill:#6383a3; stroke:none;" d="M258 178L258 179L261 179L258 178z"/>
<path style="fill:#f4f9ff; stroke:none;" d="M258 179L248.8 227L236 291L254 294L261.576 254L276 182L258 179z"/>
<path style="fill:#9bbbdb; stroke:none;" d="M262.667 179.333L263.333 179.667L262.667 179.333z"/>
<path style="fill:#6383a3; stroke:none;" d="M264.667 179.333L265.333 179.667L264.667 179.333M257.333 180.667L257.667 181.333L257.333 180.667z"/>
<path style="fill:#9bbbdb; stroke:none;" d="M267.667 180.333L268.333 180.667L267.667 180.333z"/>
<path style="fill:#6383a3; stroke:none;" d="M269.667 180.333L270.333 180.667L269.667 180.333z"/>
<path style="fill:#9bbbdb; stroke:none;" d="M272.667 181.333L273.333 181.667L272.667 181.333z"/>
<path style="fill:#6383a3; stroke:none;" d="M274.667 181.333L275.333 181.667L274.667 181.333z"/>
<path style="fill:#9bbbdb; stroke:none;" d="M257.333 182.667L257.667 183.333L257.333 182.667M275.333 183.667L275.667 184.333L275.333 183.667z"/>
<path style="fill:#6383a3; stroke:none;" d="M275.333 185.667L275.667 186.333L275.333 185.667z"/>
<path style="fill:#9bbbdb; stroke:none;" d="M256.333 187.667L256.667 188.333L256.333 187.667M209 188L218.944 201L211 211L187 236C196.637 229.212 204.674 219.33 213 211C215.424 208.575 220.793 204.812 220.793 201C220.793 196.133 212.56 190.508 209 188M274.333 188.667L274.667 189.333L274.333 188.667z"/>
<path style="fill:#6383a3; stroke:none;" d="M290 201L303 191.056L317 203L351 236C341.628 222.696 327.506 211.506 316 200C313.015 197.015 307.634 189.207 303 189.207C298.133 189.207 292.508 197.44 290 201z"/>
<path style="fill:#f4f9ff; stroke:none;" d="M161 236C168.306 246.371 179.035 255.035 188 264C193.657 269.657 199.319 277.199 206 281.623C210.719 284.749 219.793 277.135 219.793 272C219.793 268.83 216.007 266.023 213.999 264L196 246C193.665 243.664 188.133 239.793 188.631 236C189.085 232.54 193.705 229.297 196 227C202.071 220.925 217.556 210.417 219.654 202C220.988 196.65 210.825 188.181 206 191.377C189.415 202.36 175.084 221.916 161 236M302 189L292.207 201L300 211L326 236L326 237C320.419 240.931 315.819 246.181 311 251L301 261C298.335 263.665 293.299 267.175 292.346 271C291.298 275.203 299.797 283.702 304 282.654C308.157 281.618 312.096 275.904 315 273L339 249C341.803 246.197 348.793 241.374 348.793 237C348.793 232.366 340.985 226.985 338 224C326.494 212.494 315.304 198.372 302 189z"/>
<path style="fill:#9bbbdb; stroke:none;" d="M303 189L304 190L303 189z"/>
<path style="fill:#6383a3; stroke:none;" d="M274.333 190.667L274.667 191.333L274.333 190.667z"/>
<path style="fill:#9bbbdb; stroke:none;" d="M304 190L305 191L304 190M255 191L255 194L256 194L255 191M305 191L306 192L305 191M306 192L307 193L306 192M273.333 193.667L273.667 194.333L273.333 193.667M307 193L308 194L307 193M308 194L309 195L308 194z"/>
<path style="fill:#6383a3; stroke:none;" d="M273.333 195.667L273.667 196.333L273.333 195.667z"/>
<path style="fill:#9bbbdb; stroke:none;" d="M309 195L310 196L309 195M254 196L254 199L255 199L254 196M310 196L311 197L310 196M311 197L312 198L311 197M272.333 198.667L272.667 199.333L272.333 198.667M312 198L313 199L312 198M313 199L314 200L313 199z"/>
<path style="fill:#6383a3; stroke:none;" d="M272.333 200.667L272.667 201.333L272.333 200.667z"/>
<path style="fill:#9bbbdb; stroke:none;" d="M314 200L315 201L314 200M253 201L253 204L254 204L253 201M290 201L291 202L290 201M315 201L316 202L315 201M291 202L292 203L291 202M316 202L317 203L316 202M271.333 203.667L271.667 204.333L271.333 203.667M292 203L293 204L292 203M317 203L318 204L317 203M293 204L294 205L293 204M318 204L319 205L318 204z"/>
<path style="fill:#6383a3; stroke:none;" d="M271.333 205.667L271.667 206.333L271.333 205.667z"/>
<path style="fill:#9bbbdb; stroke:none;" d="M294 205L295 206L294 205M319 205L320 206L319 205M252 206L252 209L253 209L252 206M295 206L296 207L295 206M320 206L321 207L320 206M296 207L297 208L296 207M321 207L322 208L321 207M270.333 208.667L270.667 209.333L270.333 208.667M297 208L298 209L297 208M322 208L323 209L322 208M298 209L299 210L298 209M323 209L324 210L323 209z"/>
<path style="fill:#6383a3; stroke:none;" d="M270 210L270 213L271 213L270 210z"/>
<path style="fill:#9bbbdb; stroke:none;" d="M299 210L300 211L299 210M324 210L325 211L324 210M251 211L251 214L252 214L251 211M300 211L301 212L300 211M325 211L326 212L325 211M301 212L302 213L301 212M326 212L327 213L326 212M269.333 213.667L269.667 214.333L269.333 213.667M302 213L303 214L302 213M327 213L328 214L327 213M303 214L304 215L303 214M328 214L329 215L328 214z"/>
<path style="fill:#6383a3; stroke:none;" d="M269 215L269 218L270 218L269 215z"/>
<path style="fill:#9bbbdb; stroke:none;" d="M304 215L305 216L304 215M329 215L330 216L329 215M250 216L250 219L251 219L250 216M305 216L306 217L305 216M330 216L331 217L330 216M306 217L307 218L306 217M331 217L332 218L331 217M268.333 218.667L268.667 219.333L268.333 218.667M307 218L308 219L307 218M332 218L333 219L332 218M308 219L309 220L308 219M333 219L334 220L333 219z"/>
<path style="fill:#6383a3; stroke:none;" d="M268 220L268 223L269 223L268 220z"/>
<path style="fill:#9bbbdb; stroke:none;" d="M309 220L310 221L309 220M334 220L335 221L334 220M249 221L249 224L250 224L249 221M310 221L311 222L310 221M335 221L336 222L335 221M311 222L312 223L311 222M336 222L337 223L336 222M267.333 223.667L267.667 224.333L267.333 223.667M312 223L313 224L312 223M337 223L338 224L337 223M313 224L314 225L313 224M338 224L339 225L338 224z"/>
<path style="fill:#6383a3; stroke:none;" d="M267 225L267 228L268 228L267 225z"/>
<path style="fill:#9bbbdb; stroke:none;" d="M314 225L315 226L314 225M339 225L340 226L339 225M248 226L248 229L249 229L248 226M315 226L316 227L315 226M340 226L341 227L340 226M316 227L317 228L316 227M341 227L342 228L341 227M266.333 228.667L266.667 229.333L266.333 228.667M317 228L318 229L317 228M342 228L343 229L342 228M318 229L319 230L318 229M343 229L344 230L343 229z"/>
<path style="fill:#6383a3; stroke:none;" d="M266 230L266 233L267 233L266 230z"/>
<path style="fill:#9bbbdb; stroke:none;" d="M319 230L320 231L319 230M344 230L345 231L344 230M247 231L247 234L248 234L247 231M320 231L321 232L320 231M345 231L346 232L345 231M321 232L322 233L321 232M346 232L347 233L346 232M265.333 233.667L265.667 234.333L265.333 233.667M322 233L323 234L322 233M347 233L348 234L347 233M323 234L324 235L323 234M348 234L349 235L348 234z"/>
<path style="fill:#6383a3; stroke:none;" d="M265 235L265 238L266 238L265 235z"/>
<path style="fill:#9bbbdb; stroke:none;" d="M324 235L325 236L324 235M349 235L350 236L349 235M246 236L246 239L247 239L246 236M325 236L326 237L325 236M350 236L351 237L350 236M161 237L162 238L161 237M187 237L188 238L187 237z"/>
<path style="fill:#6383a3; stroke:none;" d="M324 237L325 238L324 237M350 237L351 238L350 237z"/>
<path style="fill:#9bbbdb; stroke:none;" d="M162 238L163 239L162 238M188 238L189 239L188 238M264.333 238.667L264.667 239.333L264.333 238.667z"/>
<path style="fill:#6383a3; stroke:none;" d="M323 238L324 239L323 238M349 238L350 239L349 238z"/>
<path style="fill:#9bbbdb; stroke:none;" d="M163 239L164 240L163 239M189 239L190 240L189 239z"/>
<path style="fill:#6383a3; stroke:none;" d="M322 239L323 240L322 239M348 239L349 240L348 239z"/>
<path style="fill:#9bbbdb; stroke:none;" d="M164 240L165 241L164 240M190 240L191 241L190 240z"/>
<path style="fill:#6383a3; stroke:none;" d="M264 240L264 243L265 243L264 240M321 240L322 241L321 240M347 240L348 241L347 240z"/>
<path style="fill:#9bbbdb; stroke:none;" d="M165 241L166 242L165 241M191 241L192 242L191 241M245 241L245 245L246 245L245 241z"/>
<path style="fill:#6383a3; stroke:none;" d="M320 241L321 242L320 241M346 241L347 242L346 241z"/>
<path style="fill:#9bbbdb; stroke:none;" d="M166 242L167 243L166 242M192 242L193 243L192 242z"/>
<path style="fill:#6383a3; stroke:none;" d="M319 242L320 243L319 242M345 242L346 243L345 242z"/>
<path style="fill:#9bbbdb; stroke:none;" d="M167 243L168 244L167 243M193 243L194 244L193 243M263.333 243.667L263.667 244.333L263.333 243.667z"/>
<path style="fill:#6383a3; stroke:none;" d="M318 243L319 244L318 243M344 243L345 244L344 243z"/>
<path style="fill:#9bbbdb; stroke:none;" d="M168 244L169 245L168 244M194 244L195 245L194 244z"/>
<path style="fill:#6383a3; stroke:none;" d="M317 244L318 245L317 244M343 244L344 245L343 244z"/>
<path style="fill:#9bbbdb; stroke:none;" d="M169 245L170 246L169 245M195 245L196 246L195 245z"/>
<path style="fill:#6383a3; stroke:none;" d="M263 245L263 248L264 248L263 245M316 245L317 246L316 245M342 245L343 246L342 245z"/>
<path style="fill:#9bbbdb; stroke:none;" d="M170 246L171 247L170 246M196 246L197 247L196 246M244 246L244 250L245 250L244 246z"/>
<path style="fill:#6383a3; stroke:none;" d="M315 246L316 247L315 246M341 246L342 247L341 246z"/>
<path style="fill:#9bbbdb; stroke:none;" d="M171 247L172 248L171 247M197 247L198 248L197 247z"/>
<path style="fill:#6383a3; stroke:none;" d="M314 247L315 248L314 247M340 247L341 248L340 247z"/>
<path style="fill:#9bbbdb; stroke:none;" d="M172 248L173 249L172 248M198 248L199 249L198 248M262.333 248.667L262.667 249.333L262.333 248.667z"/>
<path style="fill:#6383a3; stroke:none;" d="M313 248L314 249L313 248M339 248L340 249L339 248z"/>
<path style="fill:#9bbbdb; stroke:none;" d="M173 249L174 250L173 249M199 249L200 250L199 249z"/>
<path style="fill:#6383a3; stroke:none;" d="M312 249L313 250L312 249M338 249L339 250L338 249z"/>
<path style="fill:#9bbbdb; stroke:none;" d="M174 250L175 251L174 250M200 250L201 251L200 250z"/>
<path style="fill:#6383a3; stroke:none;" d="M262 250L262 253L263 253L262 250M311 250L312 251L311 250M337 250L338 251L337 250z"/>
<path style="fill:#9bbbdb; stroke:none;" d="M175 251L176 252L175 251M201 251L202 252L201 251z"/>
<path style="fill:#6383a3; stroke:none;" d="M310 251L311 252L310 251M336 251L337 252L336 251z"/>
<path style="fill:#9bbbdb; stroke:none;" d="M176 252L177 253L176 252M202 252L203 253L202 252M243 252L243 255L244 255L243 252z"/>
<path style="fill:#6383a3; stroke:none;" d="M309 252L310 253L309 252M335 252L336 253L335 252z"/>
<path style="fill:#9bbbdb; stroke:none;" d="M177 253L178 254L177 253M203 253L204 254L203 253z"/>
<path style="fill:#6383a3; stroke:none;" d="M308 253L309 254L308 253M334 253L335 254L334 253z"/>
<path style="fill:#9bbbdb; stroke:none;" d="M178 254L179 255L178 254M204 254L205 255L204 254M261.333 254.667L261.667 255.333L261.333 254.667z"/>
<path style="fill:#6383a3; stroke:none;" d="M307 254L308 255L307 254M333 254L334 255L333 254z"/>
<path style="fill:#9bbbdb; stroke:none;" d="M179 255L180 256L179 255M205 255L206 256L205 255z"/>
<path style="fill:#6383a3; stroke:none;" d="M306 255L307 256L306 255M332 255L333 256L332 255z"/>
<path style="fill:#9bbbdb; stroke:none;" d="M180 256L181 257L180 256M206 256L207 257L206 256z"/>
<path style="fill:#6383a3; stroke:none;" d="M261.333 256.667L261.667 257.333L261.333 256.667M305 256L306 257L305 256M331 256L332 257L331 256z"/>
<path style="fill:#9bbbdb; stroke:none;" d="M181 257L182 258L181 257M207 257L208 258L207 257M242 257L242 260L243 260L242 257z"/>
<path style="fill:#6383a3; stroke:none;" d="M304 257L305 258L304 257M330 257L331 258L330 257z"/>
<path style="fill:#9bbbdb; stroke:none;" d="M182 258L183 259L182 258M208 258L209 259L208 258z"/>
<path style="fill:#6383a3; stroke:none;" d="M303 258L304 259L303 258M329 258L330 259L329 258z"/>
<path style="fill:#9bbbdb; stroke:none;" d="M183 259L184 260L183 259M209 259L210 260L209 259M260.333 259.667L260.667 260.333L260.333 259.667z"/>
<path style="fill:#6383a3; stroke:none;" d="M302 259L303 260L302 259M328 259L329 260L328 259z"/>
<path style="fill:#9bbbdb; stroke:none;" d="M184 260L185 261L184 260M210 260L211 261L210 260z"/>
<path style="fill:#6383a3; stroke:none;" d="M301 260L302 261L301 260M327 260L328 261L327 260z"/>
<path style="fill:#9bbbdb; stroke:none;" d="M185 261L186 262L185 261M211 261L212 262L211 261z"/>
<path style="fill:#6383a3; stroke:none;" d="M260.333 261.667L260.667 262.333L260.333 261.667M300 261L301 262L300 261M326 261L327 262L326 261z"/>
<path style="fill:#9bbbdb; stroke:none;" d="M186 262L187 263L186 262M212 262L213 263L212 262M241 262L241 265L242 265L241 262z"/>
<path style="fill:#6383a3; stroke:none;" d="M299 262L300 263L299 262M325 262L326 263L325 262z"/>
<path style="fill:#9bbbdb; stroke:none;" d="M187 263L188 264L187 263M213 263L214 264L213 263z"/>
<path style="fill:#6383a3; stroke:none;" d="M298 263L299 264L298 263M324 263L325 264L324 263z"/>
<path style="fill:#9bbbdb; stroke:none;" d="M188 264L189 265L188 264M214 264L215 265L214 264M259.333 264.667L259.667 265.333L259.333 264.667z"/>
<path style="fill:#6383a3; stroke:none;" d="M297 264L298 265L297 264M323 264L324 265L323 264z"/>
<path style="fill:#9bbbdb; stroke:none;" d="M189 265L190 266L189 265M215 265L216 266L215 265z"/>
<path style="fill:#6383a3; stroke:none;" d="M296 265L297 266L296 265M322 265L323 266L322 265z"/>
<path style="fill:#9bbbdb; stroke:none;" d="M190 266L191 267L190 266M216 266L217 267L216 266z"/>
<path style="fill:#6383a3; stroke:none;" d="M259.333 266.667L259.667 267.333L259.333 266.667M295 266L296 267L295 266M321 266L322 267L321 266z"/>
<path style="fill:#9bbbdb; stroke:none;" d="M191 267L192 268L191 267M217 267L218 268L217 267M240 267L240 270L241 270L240 267z"/>
<path style="fill:#6383a3; stroke:none;" d="M294 267L295 268L294 267M320 267L321 268L320 267z"/>
<path style="fill:#9bbbdb; stroke:none;" d="M192 268L193 269L192 268M218 268L219 269L218 268z"/>
<path style="fill:#6383a3; stroke:none;" d="M293 268L294 269L293 268M319 268L320 269L319 268z"/>
<path style="fill:#9bbbdb; stroke:none;" d="M193 269L194 270L193 269M219 269L220 270L219 269M258.333 269.667L258.667 270.333L258.333 269.667z"/>
<path style="fill:#6383a3; stroke:none;" d="M292 269L293 270L292 269M318 269L319 270L318 269z"/>
<path style="fill:#9bbbdb; stroke:none;" d="M194 270L195 271L194 270M220 270L221 271L220 270z"/>
<path style="fill:#6383a3; stroke:none;" d="M291 270L292 271L291 270M317 270L318 271L317 270z"/>
<path style="fill:#9bbbdb; stroke:none;" d="M195 271L196 272L195 271M221.333 271.667L221.667 272.333L221.333 271.667z"/>
<path style="fill:#6383a3; stroke:none;" d="M258.333 271.667L258.667 272.333L258.333 271.667M290 271L291 272L290 271M316 271L317 272L316 271z"/>
<path style="fill:#01c7fe; stroke:none;" d="M511 271L511 278L512 278L511 271z"/>
<path style="fill:#9bbbdb; stroke:none;" d="M196 272L197 273L196 272M239 272L239 275L240 275L239 272M290 272L291 273L290 272z"/>
<path style="fill:#6383a3; stroke:none;" d="M315 272L316 273L315 272z"/>
<path style="fill:#9bbbdb; stroke:none;" d="M197 273L198 274L197 273M220 273L221 274L220 273M291 273L292 274L291 273z"/>
<path style="fill:#6383a3; stroke:none;" d="M314 273L315 274L314 273z"/>
<path style="fill:#9bbbdb; stroke:none;" d="M198 274L199 275L198 274M219 274L220 275L219 274M257.333 274.667L257.667 275.333L257.333 274.667M292 274L293 275L292 274z"/>
<path style="fill:#6383a3; stroke:none;" d="M313 274L314 275L313 274z"/>
<path style="fill:#9bbbdb; stroke:none;" d="M199 275L200 276L199 275M218 275L219 276L218 275M293 275L294 276L293 275z"/>
<path style="fill:#6383a3; stroke:none;" d="M312 275L313 276L312 275z"/>
<path style="fill:#9bbbdb; stroke:none;" d="M200 276L201 277L200 276M217 276L218 277L217 276z"/>
<path style="fill:#6383a3; stroke:none;" d="M257.333 276.667L257.667 277.333L257.333 276.667z"/>
<path style="fill:#9bbbdb; stroke:none;" d="M294 276L295 277L294 276z"/>
<path style="fill:#6383a3; stroke:none;" d="M311 276L312 277L311 276z"/>
<path style="fill:#9bbbdb; stroke:none;" d="M201 277L202 278L201 277M216 277L217 278L216 277M238 277L238 280L239 280L238 277M295 277L296 278L295 277z"/>
<path style="fill:#6383a3; stroke:none;" d="M310 277L311 278L310 277z"/>
<path style="fill:#f4f9ff; stroke:none;" d="M0 278L0 512L234 512L234 511C146.766 510.942 59.5029 442.648 24.3086 366C15.5755 346.981 9.02703 327.469 4.66127 307C2.7424 298.003 3.48414 286.3 0 278z"/>
<path style="fill:#9bbbdb; stroke:none;" d="M202 278L203 279L202 278M215 278L216 279L215 278M296 278L297 279L296 278z"/>
<path style="fill:#6383a3; stroke:none;" d="M309 278L310 279L309 278z"/>
<path style="fill:#f4f9ff; stroke:none;" d="M511 278C510.982 305.66 501.568 335.017 490.306 360C454.579 439.25 368.826 510.94 278 511L278 512L512 512L512 347L512 300L511 278z"/>
<path style="fill:#9bbbdb; stroke:none;" d="M203 279L204 280L203 279M214 279L215 280L214 279M256.333 279.667L256.667 280.333L256.333 279.667M297 279L298 280L297 279z"/>
<path style="fill:#6383a3; stroke:none;" d="M308 279L309 280L308 279z"/>
<path style="fill:#9bbbdb; stroke:none;" d="M204 280L205 281L204 280M213 280L214 281L213 280M298 280L299 281L298 280z"/>
<path style="fill:#6383a3; stroke:none;" d="M307 280L308 281L307 280z"/>
<path style="fill:#9bbbdb; stroke:none;" d="M205 281L206 282L205 281M212 281L213 282L212 281z"/>
<path style="fill:#6383a3; stroke:none;" d="M256.333 281.667L256.667 282.333L256.333 281.667z"/>
<path style="fill:#9bbbdb; stroke:none;" d="M299 281L300 282L299 281z"/>
<path style="fill:#6383a3; stroke:none;" d="M306 281L307 282L306 281z"/>
<path style="fill:#9bbbdb; stroke:none;" d="M206 282L207 283L206 282M211 282L212 283L211 282M237 282L237 285L238 285L237 282M300 282L301 283L300 282z"/>
<path style="fill:#6383a3; stroke:none;" d="M305 282L306 283L305 282z"/>
<path style="fill:#9bbbdb; stroke:none;" d="M207 283L208 284L207 283M210 283L211 284L210 283M301 283L302 284L301 283z"/>
<path style="fill:#6383a3; stroke:none;" d="M304 283L305 284L304 283z"/>
<path style="fill:#01c7fe; stroke:none;" d="M510 283L510 288L511 288L510 283z"/>
<path style="fill:#9bbbdb; stroke:none;" d="M208.667 284.333L209.333 284.667L208.667 284.333M255 284L255 287L256 287L255 284z"/>
<path style="fill:#6383a3; stroke:none;" d="M302.667 284.333L303.333 284.667L302.667 284.333z"/>
<path style="fill:#9bbbdb; stroke:none;" d="M236 287L236 290L237 290L236 287M254 289L254 292L255 292L254 289M236.667 291.333L237.333 291.667L236.667 291.333z"/>
<path style="fill:#01c7fe; stroke:none;" d="M509 291L509 296L510 296L509 291z"/>
<path style="fill:#9bbbdb; stroke:none;" d="M240 292L240 293L243 293L240 292M245 293L245 294L249 294L245 293M250 294L250 295L254 295L250 294z"/>
<path style="fill:#01c7fe; stroke:none;" d="M508 298L508 301L509 301L508 298M507 304L507 307L508 307L507 304M506.333 309.667L506.667 310.333L506.333 309.667M505 313L505 316L506 316L505 313M504 317L504 320L505 320L504 317M503 321L503 324L504 324L503 321M502.333 325.667L502.667 326.333L502.333 325.667M501 328L501 331L502 331L501 328M500.333 332.667L500.667 333.333L500.333 332.667M499.333 335.667L499.667 336.333L499.333 335.667z"/>
<path style="fill:#9bbbdb; stroke:none;" d="M100 337L100 376L101 376C101 364.828 104.311 347.274 100 337z"/>
<path style="fill:#01c7fe; stroke:none;" d="M498.333 338.667L498.667 339.333L498.333 338.667M497.333 341.667L497.667 342.333L497.333 341.667M496.333 344.667L496.667 345.333L496.333 344.667M495.333 346.667L495.667 347.333L495.333 346.667M494.333 349.667L494.667 350.333L494.333 349.667M493.333 351.667L493.667 352.333L493.333 351.667M492.333 354.667L492.667 355.333L492.333 354.667M491.333 356.667L491.667 357.333L491.333 356.667M490 359L491 360L490 359M489 361L490 362L489 361M488.333 363.667L488.667 364.333L488.333 363.667M487.333 365.667L487.667 366.333L487.333 365.667M486.333 367.667L486.667 368.333L486.333 367.667M485.333 369.667L485.667 370.333L485.333 369.667M484.333 371.667L484.667 372.333L484.333 371.667M483.333 373.667L483.667 374.333L483.333 373.667M482.333 375.667L482.667 376.333L482.333 375.667M481.333 377.667L481.667 378.333L481.333 377.667M480 379L481 380L480 379M479 381L480 382L479 381M478.333 382.667L478.667 383.333L478.333 382.667M477.333 384.667L477.667 385.333L477.333 384.667M476 386L477 387L476 386M475 388L476 389L475 388M474.333 389.667L474.667 390.333L474.333 389.667M473 391L474 392L473 391M472.333 392.667L472.667 393.333L472.333 392.667M471 394L472 395L471 394M470 396L471 397L470 396M469 397L470 398L469 397M468 399L469 400L468 399M467 400L468 401L467 400M466 402L467 403L466 402M465 403L466 404L465 403M464.333 404.667L464.667 405.333L464.333 404.667M463 406L464 407L463 406M462 407L463 408L462 407M461 409L462 410L461 409M460 410L461 411L460 410M459 411L460 412L459 411M458.333 412.667L458.667 413.333L458.333 412.667M457 414L458 415L457 414M456 415L457 416L456 415M455 416L456 417L455 416M454 418L455 419L454 418M453 419L454 420L453 419M452 420L453 421L452 420M451 421L452 422L451 421M450 422L451 423L450 422M449 423L450 424L449 423M448 425L449 426L448 425M447 426L448 427L447 426M446 427L447 428L446 427M445 428L446 429L445 428M444 429L445 430L444 429M443 430L444 431L443 430M442 431L443 432L442 431M441 432L442 433L441 432M440 433L441 434L440 433M439 434L440 435L439 434M438 435L439 436L438 435M435 438L436 439L435 438M434 439L435 440L434 439M433 440L434 441L433 440M432 441L433 442L432 441M431 442L432 443L431 442M430 443L431 444L430 443M429 444L430 445L429 444M428 445L429 446L428 445M427 446L428 447L427 446M426 447L427 448L426 447M425 448L426 449L425 448M423 449L424 450L423 449M422 450L423 451L422 450M421 451L422 452L421 451M420 452L421 453L420 452M419 453L420 454L419 453M418 454L419 455L418 454M416 455L417 456L416 455M415 456L416 457L415 456M414 457L415 458L414 457M412.667 458.333L413.333 458.667L412.667 458.333M411 459L412 460L411 459M410 460L411 461L410 460M409 461L410 462L409 461M407 462L408 463L407 462M406 463L407 464L406 463M404.667 464.333L405.333 464.667L404.667 464.333M403 465L404 466L403 465M402 466L403 467L402 466M400 467L401 468L400 467M399 468L400 469L399 468M397 469L398 470L397 469M396 470L397 471L396 470M394 471L395 472L394 471M392.667 472.333L393.333 472.667L392.667 472.333M391 473L392 474L391 473M389.667 474.333L390.333 474.667L389.667 474.333M388 475L389 476L388 475M386 476L387 477L386 476M384.667 477.333L385.333 477.667L384.667 477.333M382.667 478.333L383.333 478.667L382.667 478.333M381 479L382 480L381 479M379 480L380 481L379 480M377.667 481.333L378.333 481.667L377.667 481.333M375.667 482.333L376.333 482.667L375.667 482.333M373.667 483.333L374.333 483.667L373.667 483.333M371.667 484.333L372.333 484.667L371.667 484.333M369.667 485.333L370.333 485.667L369.667 485.333M367.667 486.333L368.333 486.667L367.667 486.333M365.667 487.333L366.333 487.667L365.667 487.333M363.667 488.333L364.333 488.667L363.667 488.333M361 489L362 490L361 489M359 490L360 491L359 490M356.667 491.333L357.333 491.667L356.667 491.333M354.667 492.333L355.333 492.667L354.667 492.333M351.667 493.333L352.333 493.667L351.667 493.333M349.667 494.333L350.333 494.667L349.667 494.333M346.667 495.333L347.333 495.667L346.667 495.333M344.667 496.333L345.333 496.667L344.667 496.333M341.667 497.333L342.333 497.667L341.667 497.333M338.667 498.333L339.333 498.667L338.667 498.333M335.667 499.333L336.333 499.667L335.667 499.333M332.667 500.333L333.333 500.667L332.667 500.333M328 501L328 502L331 502L328 501M325.667 502.333L326.333 502.667L325.667 502.333M321 503L321 504L324 504L321 503M317 504L317 505L320 505L317 504M313 505L313 506L316 506L313 505M309.667 506.333L310.333 506.667L309.667 506.333M304 507L304 508L307 508L304 507M298 508L298 509L301 509L298 508M291 509L291 510L296 510L291 509M283 510L283 511L288 511L283 510M271 511L271 512L278 512L271 511z"/>
</svg>
